<svg width="25" height="25" viewBox="0 0 25 25" fill="none" xmlns="http://www.w3.org/2000/svg">
<g clip-path="url(#clip0_3_799)">
<path d="M1.98254 12.0618C1.98254 4.06177 4.98254 1.06177 12.9825 1.06177C20.9825 1.06177 23.9825 4.06177 23.9825 12.0618C23.9825 20.0618 20.9825 23.0618 12.9825 23.0618C4.98254 23.0618 1.98254 20.0618 1.98254 12.0618Z" fill="white"/>
<path d="M19.1025 5.94177H6.86255V18.1818H19.1025V5.94177Z" fill="#F1F5F7"/>
<path opacity="0.05" d="M12.9826 13.3718L6.86255 18.1818L6.55255 8.06177L12.9826 13.3718Z" fill="black"/>
<path opacity="0.15" d="M6.98254 8.76177L15.4325 18.1818H19.1325L19.4125 8.06177L12.7125 11.9218L6.98254 8.76177Z" fill="url(#paint0_linear_3_799)"/>
<path d="M19.6126 5.94177H19.1026L12.9826 10.7918L6.86257 5.94177H6.35257C5.9476 5.94439 5.55996 6.10643 5.27359 6.3928C4.98723 6.67916 4.82519 7.0668 4.82257 7.47177V16.6518C4.82519 17.0567 4.98723 17.4444 5.27359 17.7307C5.55996 18.0171 5.9476 18.1792 6.35257 18.1818H6.86257V8.65177L12.9826 13.3718L19.1026 8.65177V18.1818H19.6126C20.0175 18.1792 20.4052 18.0171 20.6915 17.7307C20.9779 17.4444 21.1399 17.0567 21.1426 16.6518V7.47177C21.1399 7.0668 20.9779 6.67916 20.6915 6.3928C20.4052 6.10643 20.0175 5.94439 19.6126 5.94177Z" fill="#F84437"/>
</g>
<defs>
<linearGradient id="paint0_linear_3_799" x1="8.82254" y1="8.35177" x2="19.7225" y2="14.3818" gradientUnits="userSpaceOnUse">
<stop offset="0.01"/>
<stop offset="1" stop-color="#E6E6E6"/>
</linearGradient>
<clipPath id="clip0_3_799">
<rect width="24" height="24" fill="white" transform="translate(0.982544 0.0617676)"/>
</clipPath>
</defs>
</svg>
