<svg id="Build-Wall--Streamline-Atlas.svg" xmlns="http://www.w3.org/2000/svg" viewBox="-0.5 -0.5 16 16" height="16" width="16"><desc>Build Wall Streamline Icon: https://streamlinehq.com</desc><defs></defs><path d="M3.3125 11.675h3.5812500000000003v2.3874999999999997H3.3125Z" fill="none" stroke="#000000" stroke-miterlimit="10" stroke-width="1"></path><path d="M0.925 9.2875h3.5812500000000003v2.3874999999999997H0.925Z" fill="none" stroke="#000000" stroke-miterlimit="10" stroke-width="1"></path><path d="M2.7125 6.90625h3.5812500000000003v2.3874999999999997H2.7125Z" fill="none" stroke="#000000" stroke-miterlimit="10" stroke-width="1"></path><path d="M4.5 9.2875h3.5812500000000003v2.3874999999999997H4.5Z" fill="none" stroke="#000000" stroke-miterlimit="10" stroke-width="1"></path><path d="M8.08125 9.2875h3.5812500000000003v2.3874999999999997h-3.5812500000000003Z" fill="none" stroke="#000000" stroke-miterlimit="10" stroke-width="1"></path><path d="M6.887499999999999 11.675h3.5812500000000003v2.3874999999999997h-3.5812500000000003Z" fill="none" stroke="#000000" stroke-miterlimit="10" stroke-width="1"></path><path d="M10.46875 11.675h3.5812500000000003v2.3874999999999997h-3.5812500000000003Z" fill="none" stroke="#000000" stroke-miterlimit="10" stroke-width="1"></path><path d="m12.25625 6.30625 -2.5875 1.0374999999999999a0.625 0.625 0 0 1 -0.6937500000000001 -0.14375000000000002 0.625 0.625 0 0 1 -0.1375 -0.6875l1.0374999999999999 -2.59375a2.3874999999999997 2.3874999999999997 0 0 1 2.38125 2.3874999999999997Z" fill="none" stroke="#000000" stroke-miterlimit="10" stroke-width="1"></path><path d="m11.6625 4.518750000000001 0.59375 -0.6 0 -1.7874999999999999 1.7937500000000002 -1.1937499999999999" fill="none" stroke="#000000" stroke-miterlimit="10" stroke-width="1"></path><path d="m3.3125 14.0625 -2.9875000000000003 0" fill="none" stroke="#000000" stroke-miterlimit="10" stroke-width="1"></path></svg>