<svg xmlns="http://www.w3.org/2000/svg" viewBox="-0.5 -0.5 24 24" id="Real-Estate-Building-House--Streamline-Pixel.svg" height="24" width="24"><desc>Real Estate Building House Streamline Icon: https://streamlinehq.com</desc><title>real-estate-building-house</title><g><path d="M21.9075 13.145937499999999h-1.0996875v-1.0925h-1.0925v-1.0996875h-1.0925V0H7.6690625v6.5765625000000005H6.569375000000001V4.3843749999999995H4.3843749999999995V1.0996875H3.2846875000000004V4.3843749999999995H1.0925v2.1921874999999997H0V23h21.9075v-6.569375000000001H23v-2.1921874999999997h-1.0925ZM2.1921874999999997 5.476875h3.2846875000000004v1.0996875H2.1921874999999997Zm5.476875 8.7615625H6.569375000000001v2.1921874999999997h1.0996875v5.476875H1.0925V7.6690625h6.5765625000000005Zm1.0925 -13.138750000000002h8.7615625V8.768749999999999h-1.0925v-1.0996875h-1.0996875V6.5765625000000005h-1.0925v1.0925h-1.0925v1.0996875h-1.0996875v1.0925h-1.0925v1.0925h-1.0925v1.0996875h-1.0996875Zm12.04625 20.8078125h-3.2846875000000004v-4.3771875h-1.0925v4.3771875h-3.2846875000000004v-1.0925h1.0925v-1.0996875h-1.0925v-2.185h-1.0996875v4.3771875h-3.2846875000000004V14.2384375h1.0996875v-1.0925h1.0925v-1.0925h1.0925v-1.0996875h1.0996875v-1.0925h1.0925V8.768749999999999h1.0925v1.0925h1.0996875v1.0925h1.0925v1.0996875h1.0996875v1.0925h1.0925v1.0925h1.0925Z" fill="#000000" stroke-width="1"></path><path d="M10.95375 14.2384375h7.6690625v1.0996875H10.95375Z" fill="#000000" stroke-width="1"></path><path d="M13.145937499999999 16.430625h3.2846875000000004v1.0996875h-3.2846875000000004Z" fill="#000000" stroke-width="1"></path><path d="M14.2384375 2.1921874999999997h2.1921874999999997V4.3843749999999995h-2.1921874999999997Z" fill="#000000" stroke-width="1"></path><path d="M9.86125 5.476875h2.185v2.1921874999999997h-2.185Z" fill="#000000" stroke-width="1"></path><path d="M9.86125 2.1921874999999997h2.185V4.3843749999999995h-2.185Z" fill="#000000" stroke-width="1"></path><path d="M3.2846875000000004 18.6228125h2.1921874999999997v2.1921874999999997H3.2846875000000004Z" fill="#000000" stroke-width="1"></path><path d="M3.2846875000000004 14.2384375h2.1921874999999997v2.1921874999999997H3.2846875000000004Z" fill="#000000" stroke-width="1"></path><path d="M3.2846875000000004 9.86125h2.1921874999999997v2.1921874999999997H3.2846875000000004Z" fill="#000000" stroke-width="1"></path></g></svg>