<svg id="Putty-Knife-Equipment--Streamline-Atlas.svg" xmlns="http://www.w3.org/2000/svg" viewBox="-0.5 -0.5 16 16" height="16" width="16"><desc>Putty Knife Equipment Streamline Icon: https://streamlinehq.com</desc><defs></defs><path d="M11.55 9.95a6.5 6.5 0 0 1 -6.5 -6.5l8.1875 -2.73125a0.8250000000000001 0.8250000000000001 0 0 1 0.84375 0.2 0.8250000000000001 0.8250000000000001 0 0 1 0.2 0.84375Z" fill="none" stroke="#000000" stroke-miterlimit="10" stroke-width="1"></path><path d="M2 14.325000000000001a1.3250000000000002 1.3250000000000002 0 0 1 -1.3250000000000002 -1.3250000000000002 1.3312499999999998 1.3312499999999998 0 0 1 0.3875 -0.9375l3.05 -3.05 1.875 1.875L2.9375 13.9375a1.3312499999999998 1.3312499999999998 0 0 1 -0.9375 0.3875Z" fill="none" stroke="#000000" stroke-miterlimit="10" stroke-width="1"></path><path d="m10.674999999999999 4.325 -5.625 5.625" fill="none" stroke="#000000" stroke-miterlimit="10" stroke-width="1"></path></svg>