<svg width="50" height="50" viewBox="0 0 50 50" fill="none" xmlns="http://www.w3.org/2000/svg">
<g clip-path="url(#clip0_16_447)">
<path d="M2.08331 25C2.08331 8.33337 8.33331 2.08337 25 2.08337C41.6666 2.08337 47.9166 8.33337 47.9166 25C47.9166 41.6667 41.6666 47.9167 25 47.9167C8.33331 47.9167 2.08331 41.6667 2.08331 25Z" fill="#00CD4C"/>
<path d="M12.375 37.8333L13.375 34.8541C13.7083 33.8958 13.9792 32.9166 14.3542 31.9791C14.4565 31.7792 14.5099 31.5579 14.5099 31.3333C14.5099 31.1087 14.4565 30.8873 14.3542 30.6875C13.1697 28.5007 12.6863 26.0025 12.9695 23.5317C13.2527 21.0609 14.2889 18.737 15.9375 16.875C17.1344 15.5106 18.6281 14.4387 20.3038 13.7417C21.9795 13.0447 23.7928 12.7411 25.6042 12.8541C28.3497 12.9447 30.9755 13.9995 33.0208 15.8333C34.955 17.5167 36.3046 19.7709 36.875 22.2708C37.3514 24.2924 37.2939 26.4031 36.7083 28.3958C35.9924 30.8999 34.4689 33.0971 32.375 34.6458C30.9887 35.7255 29.3807 36.4853 27.6663 36.8707C25.9518 37.2561 24.1734 37.2575 22.4583 36.875C21.3733 36.6567 20.327 36.2776 19.3542 35.75C19.2792 35.7147 19.1974 35.6964 19.1146 35.6964C19.0318 35.6964 18.9499 35.7147 18.875 35.75L13.2917 37.5L12.375 37.8333ZM15.5417 34.6875H15.7292L19.2292 33.5833C19.3508 33.542 19.4826 33.542 19.6042 33.5833C20.1042 33.8333 20.5833 34.1458 21.1042 34.3541C23.1798 35.2658 25.5095 35.4206 27.6875 34.7916C28.9686 34.4494 30.1684 33.8549 31.2166 33.0428C32.2648 32.2307 33.1403 31.2174 33.7917 30.0625C35.0843 27.8123 35.4657 25.1525 34.8573 22.6298C34.2489 20.1071 32.697 17.9135 30.5208 16.5C28.5505 15.2217 26.197 14.6681 23.8634 14.9342C21.5298 15.2002 19.3613 16.2693 17.7292 17.9583C16.3932 19.3225 15.4814 21.0448 15.1042 22.9166C14.8077 24.1999 14.7748 25.53 15.0076 26.8264C15.2403 28.1227 15.7339 29.3583 16.4583 30.4583C16.5759 30.6532 16.6381 30.8765 16.6381 31.1041C16.6381 31.3318 16.5759 31.5551 16.4583 31.75C16.1875 32.6666 15.8958 33.6666 15.5417 34.6875Z" fill="white"/>
<path d="M31.25 28.5208C31.2373 28.9643 31.0995 29.3952 30.8526 29.7638C30.6056 30.1324 30.2595 30.4237 29.8542 30.6042C29.4334 30.8341 28.9677 30.97 28.4894 31.0023C28.011 31.0347 27.5312 30.9628 27.0833 30.7917C26.2256 30.4806 25.3842 30.1259 24.5625 29.7292C23.501 29.1668 22.5541 28.4108 21.7708 27.5C20.8821 26.5226 20.1193 25.4377 19.5 24.2708C19.0355 23.4621 18.8182 22.535 18.875 21.6042C18.9178 21.1235 19.0626 20.6575 19.2997 20.2372C19.5368 19.8169 19.8608 19.4519 20.25 19.1667C20.4295 19.0452 20.6379 18.9733 20.8542 18.9583C21.1176 18.9371 21.3824 18.9371 21.6458 18.9583C21.7422 18.9705 21.8329 19.0105 21.9069 19.0734C21.9809 19.1363 22.0349 19.2194 22.0625 19.3125C22.2708 19.7917 22.4375 20.2708 22.625 20.7708C22.8125 21.2708 22.8542 21.4375 23 21.75C23.1282 21.9222 23.1903 22.1347 23.175 22.3488C23.1597 22.5629 23.068 22.7645 22.9167 22.9167C22.7161 23.1787 22.493 23.4227 22.25 23.6458C22.1611 23.7159 22.1013 23.8164 22.082 23.9279C22.0628 24.0395 22.0855 24.1542 22.1458 24.25C22.7099 25.2744 23.4586 26.1856 24.3542 26.9375C24.9962 27.419 25.6961 27.818 26.4375 28.125C26.5143 28.1953 26.6146 28.2343 26.7188 28.2343C26.8229 28.2343 26.9232 28.1953 27 28.125L28.0417 26.9375C28.2708 26.6875 28.375 26.625 28.6667 26.7708L31.2292 28.1042C31.2638 28.1676 31.2837 28.238 31.2873 28.3101C31.2909 28.3823 31.2782 28.4543 31.25 28.5208Z" fill="white"/>
</g>
<defs>
<clipPath id="clip0_16_447">
<rect width="50" height="50" fill="white"/>
</clipPath>
</defs>
</svg>
